<svg xmlns="http://www.w3.org/2000/svg" version="1.1" xmlns:xlink="http://www.w3.org/1999/xlink" xmlns:svgjs="http://svgjs.dev/svgjs" width="1000" height="196" viewBox="0 0 1000 196"><g transform="matrix(1,0,0,1,-0.6058895297369986,0.046231971307179265)"><svg viewBox="0 0 396 78" data-background-color="#0a1627" preserveAspectRatio="xMidYMid meet" height="196" width="1000" xmlns="http://www.w3.org/2000/svg" xmlns:xlink="http://www.w3.org/1999/xlink"><defs></defs><g id="tight-bounds" transform="matrix(1,0,0,1,0.23993225377586214,-0.018398437561018)"><svg viewBox="0 0 395.52 78.03666138267373" height="78.03666138267373" width="395.52"><g><svg viewBox="0 0 518.5407051593147 102.30882236460938" height="78.03666138267373" width="395.52"><g transform="matrix(1,0,0,1,0,29.22092070179698)"><svg viewBox="0 0 395.52 43.86698096101542" height="43.86698096101542" width="395.52"><g><svg viewBox="0 0 395.52 43.86698096101542" height="43.86698096101542" width="395.52"><g><svg viewBox="0 0 395.52 43.86698096101542" height="43.86698096101542" width="395.52"><g transform="matrix(1,0,0,1,0,0)"><svg width="395.52" viewBox="0.699999988079071 -35.5 330.7799987792969 36.70000076293945" height="43.86698096101542" data-palette-color="#fe0039"><g class="undefined-text-0" data-fill-palette-color="primary" id="text-0"><path d="M23.65-9.15L23.65-9.15Q23.65-5 19.68-2.2 15.7 0.6 10.45 0.6L10.45 0.6Q6.35 0.6 3.53-1.15 0.7-2.9 0.7-4.5L0.7-4.5Q1.5-6.45 3.75-8.7 6-10.95 7.9-11.05L7.9-11.05Q9.15-10.5 10.23-8.33 11.3-6.15 11.95-3.3L11.95-3.3Q14.65-3.4 14.65-6.35L14.65-6.35Q14.65-8.3 13.18-11.13 11.7-13.95 9.95-16.4 8.2-18.85 6.73-21.85 5.25-24.85 5.25-27.1L5.25-27.1Q5.25-30.8 8.65-33.15 12.05-35.5 16.23-35.5 20.4-35.5 22.73-33.7 25.05-31.9 25.05-29.55L25.05-29.55Q25.05-27.6 24.25-26.43 23.45-25.25 22.98-24.63 22.5-24 21.7-23.3L21.7-23.3Q20.2-22 19.4-21.4L19.4-21.4 18.65-20.85Q21.6-17.2 23.1-12.35L23.1-12.35Q23.65-10.6 23.65-9.15ZM21.05-29.2L21.05-29.2Q21.05-31.55 18.05-31.55L18.05-31.55Q16.3-31.55 15.23-30.8 14.15-30.05 14.15-28.93 14.15-27.8 15.08-26.2 16-24.6 16.55-23.95L16.55-23.95Q17.75-24.55 19.4-26.15 21.05-27.75 21.05-29.2ZM30.15-0.65L30.15-0.65Q29.8 0.45 27.82 0.45 25.85 0.45 23.9-0.9L23.9-0.9Q25.45-5.1 30.07-14.88 34.7-24.65 36.25-29.45L36.25-29.45Q36.4-30.05 36.4-30.48 36.4-30.9 36.05-31.65 35.7-32.4 35.3-32.85L35.3-32.85 34.95-33.3 35.15-34.3Q39.6-35.5 45.7-35.5L45.7-35.5 49.55-35.3Q50.05-34.85 50.55-32.95 51.05-31.05 51.2-27.25 51.35-23.45 51.4-13L51.4-13Q51.45-4.95 53.4-4.95L53.4-4.95Q53.9-4.95 55.55-5.45L55.55-5.45 56.05-5.6 57.1-2.75Q55.05-1.2 52.3-0.3 49.55 0.6 47.35 0.6L47.35 0.6Q44.15 0.6 42.97-1.38 41.8-3.35 41.8-6.48 41.8-9.6 41.85-10.8L41.85-10.8Q40.9-11 38.15-11 35.4-11 33.4-10.45L33.4-10.45Q31.55-5.5 30.15-0.65ZM35.2-15L42.05-15Q42.3-19.35 42.3-23.75 42.3-28.15 41.8-30.15L41.8-30.15Q41.3-30.15 41.1-30.05L41.1-30.05Q40-26.7 35.2-15L35.2-15ZM67.8-0.95L67.8-0.95Q64.85 0.35 60.6 0.35L60.6 0.35Q59.15 0.35 58 0.1L58 0.1Q58-3.2 60.82-14.78 63.65-26.35 63.65-29.35L63.65-29.35Q63.65-30.55 61.85-32.55L61.85-32.55 61.3-33.2 61.45-34.3Q68.25-35.5 76.55-35.5L76.55-35.5Q81.55-35.5 84.45-33.58 87.35-31.65 87.35-27.98 87.35-24.3 85.35-21.28 83.35-18.25 79.65-16.55L79.65-16.55Q81.3-10.95 82.8-7.8 84.3-4.65 85.25-4.65L85.25-4.65Q86.05-4.65 87.75-5.25L87.75-5.25 88.34-5.45 89.55-2.75Q85.15 0.6 80.27 0.6 75.4 0.6 73.9-4.3L73.9-4.3Q72.6-8.6 71.8-14.95L71.8-14.95 70.05-14.95Q67.8-4.45 67.8-0.95ZM72.1-19.3L72.1-19.3Q73.7-19.3 74.87-20.3 76.05-21.3 76.65-22.9L76.65-22.9Q77.75-26.05 77.75-29 77.75-31.95 75.1-31.95L75.1-31.95Q74.3-31.95 73.5-31.8L73.5-31.8Q73.45-30.25 71.05-19.4L71.05-19.4Q71.4-19.3 72.1-19.3ZM107.84 1.2L107.84 1.2Q105.74 1.2 101.72-1 97.69-3.2 97.04-3.35L97.04-3.35Q94.04 0.6 91.44 0.6L91.44 0.6Q90.74 0.6 89.34-1.35 87.94-3.3 87.94-5L87.94-5Q87.94-5.75 89.49-6.88 91.04-8 93.04-8.45L93.04-8.45Q94.39-11.6 95.72-18 97.04-24.4 97.04-29.25L97.04-29.25Q97.04-30.05 96.52-31.05 95.99-32.05 95.49-32.65L95.49-32.65 94.94-33.25 95.09-34.25Q97.84-35.5 106.49-35.5L106.49-35.5Q107.29-34.25 107.29-31.25 107.29-28.25 104.64-20.85 101.99-13.45 99.34-8L99.34-8Q104.34-6.7 108.89-6.7L108.89-6.7Q109.94-6.7 110.62-7.2 111.29-7.7 112.09-9.3L112.09-9.3 114.84-8.35Q114.04-3.6 112.42-1.2 110.79 1.2 107.84 1.2ZM145.49-31.08Q146.94-29.05 147.64-26.8 148.34-24.55 148.34-21.45 148.34-18.35 147.27-14.55 146.19-10.75 144.06-7.28 141.94-3.8 138.19-1.6 134.44 0.6 129.64 0.6L129.64 0.6Q123.79 0.6 120.44-3.35 117.09-7.3 117.09-13.3 117.09-19.3 119.37-24.28 121.64-29.25 125.87-32.38 130.09-35.5 135.29-35.5L135.29-35.5Q138.79-35.5 141.42-34.3 144.04-33.1 145.49-31.08ZM128.74-3.9L128.74-3.9Q129.64-3.2 131.37-3.2 133.09-3.2 134.62-5.23 136.14-7.25 136.99-10.45L136.99-10.45Q138.59-16.75 138.59-23.5L138.59-23.5Q138.59-31.7 134.59-31.7L134.59-31.7Q132.69-31.7 131.17-29.93 129.64-28.15 128.74-25.3L128.74-25.3Q126.89-19.5 126.89-12.85L126.89-12.85Q126.89-5.4 128.74-3.9Z" fill="#fe0039" data-fill-palette-color="primary"></path><path d="M162.84 0.6L162.84 0.6Q157.44 0.6 154.09-3.3 150.74-7.2 150.74-14.25L150.74-14.25Q150.74-19.9 152.92-24.73 155.09-29.55 159.22-32.52 163.34-35.5 168.12-35.5 172.89-35.5 176.02-33.6 179.14-31.7 179.14-28.63 179.14-25.55 177.44-23.75L177.44-23.75Q175.44-23.75 172.84-24.55 170.24-25.35 168.94-26.5L168.94-26.5 169.89-31.35Q168.84-31.85 167.84-31.85L167.84-31.85Q164.94-31.85 162.74-26.83 160.54-21.8 160.54-15.05L160.54-15.05Q160.54-4.95 166.24-4.95L166.24-4.95Q169.64-4.95 173.84-8.65L173.84-8.65 176.19-6.3Q175.79-5.65 174.14-4.17 172.49-2.7 171.02-1.8 169.54-0.9 167.32-0.15 165.09 0.6 162.84 0.6ZM200.89-9.15L200.89-9.15Q200.89-5 196.91-2.2 192.94 0.6 187.69 0.6L187.69 0.6Q183.59 0.6 180.76-1.15 177.94-2.9 177.94-4.5L177.94-4.5Q178.74-6.45 180.99-8.7 183.24-10.95 185.14-11.05L185.14-11.05Q186.39-10.5 187.46-8.33 188.54-6.15 189.19-3.3L189.19-3.3Q191.89-3.4 191.89-6.35L191.89-6.35Q191.89-8.3 190.41-11.13 188.94-13.95 187.19-16.4 185.44-18.85 183.96-21.85 182.49-24.85 182.49-27.1L182.49-27.1Q182.49-30.8 185.89-33.15 189.29-35.5 193.46-35.5 197.64-35.5 199.96-33.7 202.29-31.9 202.29-29.55L202.29-29.55Q202.29-27.6 201.49-26.43 200.69-25.25 200.21-24.63 199.74-24 198.94-23.3L198.94-23.3Q197.44-22 196.64-21.4L196.64-21.4 195.89-20.85Q198.84-17.2 200.34-12.35L200.34-12.35Q200.89-10.6 200.89-9.15ZM198.29-29.2L198.29-29.2Q198.29-31.55 195.29-31.55L195.29-31.55Q193.54-31.55 192.46-30.8 191.39-30.05 191.39-28.93 191.39-27.8 192.31-26.2 193.24-24.6 193.79-23.95L193.79-23.95Q194.99-24.55 196.64-26.15 198.29-27.75 198.29-29.2ZM207.39-0.65L207.39-0.65Q207.04 0.45 205.06 0.45 203.09 0.45 201.14-0.9L201.14-0.9Q202.68-5.1 207.31-14.88 211.93-24.65 213.49-29.45L213.49-29.45Q213.64-30.05 213.64-30.48 213.64-30.9 213.29-31.65 212.93-32.4 212.54-32.85L212.54-32.85 212.18-33.3 212.39-34.3Q216.84-35.5 222.93-35.5L222.93-35.5 226.79-35.3Q227.29-34.85 227.79-32.95 228.29-31.05 228.43-27.25 228.59-23.45 228.64-13L228.64-13Q228.68-4.95 230.64-4.95L230.64-4.95Q231.14-4.95 232.79-5.45L232.79-5.45 233.29-5.6 234.34-2.75Q232.29-1.2 229.54-0.3 226.79 0.6 224.59 0.6L224.59 0.6Q221.39 0.6 220.21-1.38 219.04-3.35 219.04-6.48 219.04-9.6 219.09-10.8L219.09-10.8Q218.14-11 215.39-11 212.64-11 210.64-10.45L210.64-10.45Q208.79-5.5 207.39-0.65ZM212.43-15L219.29-15Q219.54-19.35 219.54-23.75 219.54-28.15 219.04-30.15L219.04-30.15Q218.54-30.15 218.34-30.05L218.34-30.05Q217.24-26.7 212.43-15L212.43-15ZM245.03-0.95L245.03-0.95Q242.08 0.35 237.83 0.35L237.83 0.35Q236.38 0.35 235.23 0.1L235.23 0.1Q235.23-3.2 238.06-14.78 240.88-26.35 240.88-29.35L240.88-29.35Q240.88-30.55 239.08-32.55L239.08-32.55 238.53-33.2 238.68-34.3Q245.48-35.5 253.78-35.5L253.78-35.5Q258.78-35.5 261.68-33.58 264.58-31.65 264.58-27.98 264.58-24.3 262.58-21.28 260.58-18.25 256.88-16.55L256.88-16.55Q258.53-10.95 260.03-7.8 261.53-4.65 262.48-4.65L262.48-4.65Q263.28-4.65 264.98-5.25L264.98-5.25 265.58-5.45 266.78-2.75Q262.38 0.6 257.51 0.6 252.63 0.6 251.13-4.3L251.13-4.3Q249.83-8.6 249.03-14.95L249.03-14.95 247.28-14.95Q245.03-4.45 245.03-0.95ZM249.33-19.3L249.33-19.3Q250.93-19.3 252.11-20.3 253.28-21.3 253.88-22.9L253.88-22.9Q254.98-26.05 254.98-29 254.98-31.95 252.33-31.95L252.33-31.95Q251.53-31.95 250.73-31.8L250.73-31.8Q250.68-30.25 248.28-19.4L248.28-19.4Q248.63-19.3 249.33-19.3ZM282.68 0.6L282.68 0.6Q279.33 0.6 276.38-0.7L276.38-0.7Q273.83 0.25 270.91 0.25 267.98 0.25 267.78 0.2L267.78 0.2Q267.78-3.25 270.53-14.73 273.28-26.2 273.28-27.78 273.28-29.35 272.71-30.6 272.13-31.85 271.53-32.5L271.53-32.5 270.98-33.1 271.13-34.25Q272.58-34.6 276.96-35.05 281.33-35.5 284.53-35.5L284.53-35.5Q292.23-35.5 295.96-32.33 299.68-29.15 299.68-22.15L299.68-22.15Q299.68-16.7 297.71-11.58 295.73-6.45 291.73-2.93 287.73 0.6 282.68 0.6ZM285.23-31.95L285.23-31.95Q284.33-31.95 283.28-31.8L283.28-31.8Q283.13-28.9 280.73-18.48 278.33-8.05 277.78-4.2L277.78-4.2Q278.68-3.75 279.93-3.75L279.93-3.75Q282.58-3.75 284.66-6.15 286.73-8.55 287.83-12.15L287.83-12.15Q289.98-19.45 289.98-25.4L289.98-25.4Q289.98-29 288.91-30.48 287.83-31.95 285.23-31.95ZM304.53-0.65L304.53-0.65Q304.18 0.45 302.2 0.45 300.23 0.45 298.28-0.9L298.28-0.9Q299.83-5.1 304.45-14.88 309.08-24.65 310.63-29.45L310.63-29.45Q310.78-30.05 310.78-30.48 310.78-30.9 310.43-31.65 310.08-32.4 309.68-32.85L309.68-32.85 309.33-33.3 309.53-34.3Q313.98-35.5 320.08-35.5L320.08-35.5 323.93-35.3Q324.43-34.85 324.93-32.95 325.43-31.05 325.58-27.25 325.73-23.45 325.78-13L325.78-13Q325.83-4.95 327.78-4.95L327.78-4.95Q328.28-4.95 329.93-5.45L329.93-5.45 330.43-5.6 331.48-2.75Q329.43-1.2 326.68-0.3 323.93 0.6 321.73 0.6L321.73 0.6Q318.53 0.6 317.35-1.38 316.18-3.35 316.18-6.48 316.18-9.6 316.23-10.8L316.23-10.8Q315.28-11 312.53-11 309.78-11 307.78-10.45L307.78-10.45Q305.93-5.5 304.53-0.65ZM309.58-15L316.43-15Q316.68-19.35 316.68-23.75 316.68-28.15 316.18-30.15L316.18-30.15Q315.68-30.15 315.48-30.05L315.48-30.05Q314.38-26.7 309.58-15L309.58-15Z" fill="#c1c1c1" data-fill-palette-color="secondary"></path></g></svg></g></svg></g></svg></g></svg></g><g transform="matrix(1,0,0,1,416.2318827947053,0)"><svg viewBox="0 0 102.30882236460938 102.30882236460938" height="102.30882236460938" width="102.30882236460938"><g><svg></svg></g><g id="icon-0"><svg viewBox="0 0 102.30882236460938 102.30882236460938" height="102.30882236460938" width="102.30882236460938"><g><path d="M0 51.154c0-28.252 22.903-51.154 51.154-51.154 28.252 0 51.154 22.903 51.155 51.154 0 28.252-22.903 51.154-51.155 51.155-28.252 0-51.154-22.903-51.154-51.155zM51.154 98.353c26.067 0 47.198-21.131 47.199-47.199 0-26.067-21.131-47.198-47.199-47.198-26.067 0-47.198 21.131-47.198 47.198 0 26.067 21.131 47.198 47.198 47.199z" data-fill-palette-color="accent" fill="#c1c1c1" stroke="transparent"></path></g><g transform="matrix(1,0,0,1,21.84041302550994,26.728549418694243)"><svg viewBox="0 0 58.627996313589506 48.8517235272209" height="48.8517235272209" width="58.627996313589506"><g><svg xmlns="http://www.w3.org/2000/svg" xmlns:xlink="http://www.w3.org/1999/xlink" version="1.1" x="0" y="0" viewBox="70.40655517578125 241.3441619873047 479.40313720703125 399.46221923828125" enable-background="new 0 0 595.3 841.9" xml:space="preserve" height="48.8517235272209" width="58.627996313589506" class="icon-x-0" data-fill-palette-color="accent" id="x-0"><path d="M210.2 251.8c-138.4 61.8-142 183-139.3 193.1 7.6-5.8 78.2-89.1 118.1-112.1 39.2-22.6 77.7-14.9 113.9 7.8 32.4 20.4 36.6 53.3 31.6 87-3.3 22.7-13.9 44.2-18.4 66.9-2.4 12.1-3.6 30 3.3 37.2 21.6 22.7 47.7 41 71.1 62.1 17.6 15.9 46.8 32.7 46.8 32.7s11-15.7 15.1-14.4c17.2 5.6 50.7 20.1 66.7 28.6 4 2.1 23-27.4 30.6-41.1 2.8-5.1-48.8-27.6-62.7-38.4-2.7-2.1 4.6-13.5 1.9-15.9-16.2-14-40.9-26.8-74.5-39.4-17.4-6.5-23.4-12-18.1-28.4 3.3-10 8.1-19.6 11.6-29.6 17.4-50.4 20-97.8-16.7-143.2C361.7 268.1 282 219.8 210.2 251.8zM541.1 600.6L517 633.1c0 0-39.7-19.3-58.4-28 9.5-14.4 16.4-24.8 24.3-36.7C497.4 574.2 541.1 600.6 541.1 600.6zM480.7 549.4c-6.1 10.7-12.5 18.7-19.1 29.1-6.7 10.6-14.1 20.7-24 35.2-18.9-14.1-36.3-27.1-53.9-40.2C423.2 495.8 409.6 510 480.7 549.4zM373.1 299.4c39.4 35.3 47.9 89.2 24.5 149.3-8.7 22.4-29.7 46.1 6.1 68.5-9.5 13.6-16.6 33.2-26.4 47.4-1.4-0.8-4.9-3.1-9.3-6.6-15.3-11.4-43.4-33.2-43.4-33.2s1.2-22.2 4.1-36.7c0.3-2.2 0.9-4.4 1.6-6.6 0.1-0.4 0.3-0.8 0.4-1.2 5-13.9 10.4-27.9 13.1-42.4 9.6-50.3-4.1-86.6-39.5-108.6-42.8-26.6-93.8-28-130.9 2.1-35.6 28.9-66.4 66.7-100.8 99.2 7.6-53.3 43.1-122.3 121.9-162.8C251.1 237.7 318 250 373.1 299.4z" fill="#c1c1c1" data-fill-palette-color="accent"></path></svg></g></svg></g></svg></g></svg></g></svg></g></svg><rect width="395.52" height="78.03666138267373" fill="none" stroke="none" visibility="hidden"></rect></g></svg></g></svg>